{"title":"Enders Game 2013 WEBRip 480p x264 AAC - VYTO [P2PDL]","uid":9540298,"size":451456546,"categoryP":"video","categoryS":"movies","magnet":"?xt=urn:btih:35c9e421150f47b555c76b1f4b6d19000a9953dc&amp;dn=Enders+Game+2013+WEBRip+480p+x264+AAC+-+VYTO+%5BP2PDL%5D&amp;tr=udp%3A%2F%2Ftracker.openbittorrent.com%3A80&amp;tr=udp%3A%2F%2Fopen.demonii.com%3A1337&amp;tr=udp%3A%2F%2Ftracker.coppersurfer.tk%3A6969&amp;tr=udp%3A%2F%2Fexodus.desync.com%3A6969","seeders":2,"leechers":0,"uploader":"ValidusVyto","files":-1,"time":1391028880,"description":"Enders Game 2013 WEBRip 480p x264 AAC - VYTO\n\nGenre: Action | Adventure | Sci-Fi &lt;a href=&quot;\nhttp://www.imdb.com/title/tt1731141/&quot; rel=&quot;nofollow&quot; target=&quot;_NEW&quot;&gt;\nhttp://www.imdb.com/title/tt1731141/&lt;/a&gt;\n\n\nFormat                                   : MPEG-4\nFile size                                : 431 MiB\nDuration                                 : 1h 53mn\nOverall bit rate mode                    : Variable\nOverall bit rate                         : 529 Kbps\n\nVideo\nID                                       : 1\nFormat                                   : AVC\nBit rate                                 : 460 Kbps\nWidth                                    : 720 pixels\nHeight                                   : 304 pixels\nDisplay aspect ratio                     : 2.40:1\nFrame rate mode                          : Variable\nFrame rate                               : 23.976 fps\nBit depth                                : 8 bits\nScan type                                : Progressive\nStream size                              : 374 MiB (87%)\nWriting library                          : x264 core 130 r2273 b3065e6\n\nAudio\nFormat                                   : AAC\n\nBit rate mode                            : Variable\nBit rate                                 : 64.1 Kbps\nChannel(s)                               : 2 channels\nChannel positions                        : Front: L R\nSampling rate                            : 48.0 KHz\nStream size                              : 52.2 MiB (12%)\nLanguage                                 : English\n &lt;a href=&quot;\nhttp://ultraimg.com/images/XYrnd.png&quot; rel=&quot;nofollow&quot; target=&quot;_NEW&quot;&gt;\nhttp://ultraimg.com/images/XYrnd.png&lt;/a&gt; &lt;a href=&quot;\nhttp://ultraimg.com/images/PpDxz.png&quot; rel=&quot;nofollow&quot; target=&quot;_NEW&quot;&gt;\nhttp://ultraimg.com/images/PpDxz.png&lt;/a&gt; &lt;a href=&quot;\nhttp://ultraimg.com/images/n52b4.png&quot; rel=&quot;nofollow&quot; target=&quot;_NEW&quot;&gt;\nhttp://ultraimg.com/images/n52b4.png&lt;/a&gt; &lt;a href=&quot;\nhttp://ultraimg.com/images/ojWZB.png&quot; rel=&quot;nofollow&quot; target=&quot;_NEW&quot;&gt;\nhttp://ultraimg.com/images/ojWZB.png&lt;/a&gt; &lt;a href=&quot;\nhttp://ultraimg.com/images/TJVSz.png&quot; rel=&quot;nofollow&quot; target=&quot;_NEW&quot;&gt;\nhttp://ultraimg.com/images/TJVSz.png&lt;/a&gt; &lt;a href=&quot;\nhttp://ultraimg.com/images/H98pW.png&quot; rel=&quot;nofollow&quot; target=&quot;_NEW&quot;&gt;\nhttp://ultraimg.com/images/H98pW.png&lt;/a&gt;\n\n----------------------------------------------------------------------------------------------------\n\n\nEncoded using revolutionary 10bit encoding, which enables us to provide you more crispier \nand sharper images at small sizes, just make sure you follow our instructions without a fault.\nRecommend to you to use latest version of VLC player. Install K-Lite Codec Pack or shark007 codecs\nin case of any kind of problem in playback (For non-VLC Media Player users). Alternatively, install\nCore AVC codecs, the fastest decoder that there is coupled with Community Center Codec Pack and play\non Windows Media Player Classic. Check sample to be sure.\nEnjoy!\n\nEncoder Notes:Looking For Early Access To Anything You Can Provide DVDScr, R5, DVDR, BluRay, Direct\nAudio, Music Releases and Seedboxes. We require dedicated servers, so as to do more \nand fast releases of movies.\nIf You Got anything to offer please contact us at &quot;&lt;a class=&quot;__cf_email__&quot; href=&quot;/cdn-cgi/l/email-protection&quot; data-cfemail=&quot;f7878590b79f82849fd994989a&quot;&gt;[email&amp;#160;protected]&lt;/a&gt;&lt;script cf-hash='f9e31' type=&quot;text/javascript&quot;&gt;\n/* &lt;![CDATA[ */!function(){try{var t=&quot;currentScript&quot;in document?document.currentScript:function(){for(var t=document.getElementsByTagName(&quot;script&quot;),e=t.length;e--;)if(t[e].getAttribute(&quot;cf-hash&quot;))return t[e]}();if(t&amp;&amp;t.previousSibling){var e,r,n,i,c=t.previousSibling,a=c.getAttribute(&quot;data-cfemail&quot;);if(a){for(e=&quot;&quot;,r=parseInt(a.substr(0,2),16),n=2;a.length-n;n+=2)i=parseInt(a.substr(n,2),16)^r,e+=String.fromCharCode(i);e=document.createTextNode(e),c.parentNode.replaceChild(e,c)}}}catch(u){}}();/* ]]&gt; */&lt;/script&gt;&quot;.\n\nHow to play 10bit video's on iPAD?\nInstall VLC for iOS from iTunes store, open iTunes on PC/MAC, go to apps tab, find VLC, added needed\nvideo files into VLC. Now you will be able to find added video on VLC for iOS app.\nNow enjoy 10bit video on your iPAD.","torrent":{"xt":"urn:btih:35c9e421150f47b555c76b1f4b6d19000a9953dc","amp;dn":"Enders+Game+2013+WEBRip+480p+x264+AAC+-+VYTO+%5BP2PDL%5D","amp;tr":["udp%3A%2F%2Ftracker.openbittorrent.com%3A80","udp%3A%2F%2Fopen.demonii.com%3A1337","udp%3A%2F%2Ftracker.coppersurfer.tk%3A6969","udp%3A%2F%2Fexodus.desync.com%3A6969"],"infoHash":"35c9e421150f47b555c76b1f4b6d19000a9953dc","infoHashBuffer":{"type":"Buffer","data":[53,201,228,33,21,15,71,181,85,199,107,31,75,109,25,0,10,153,83,220]},"announce":[],"urlList":[]}}